<svg width="900" height="900" viewBox="0 0 900 900" fill="none" xmlns="http://www.w3.org/2000/svg">
  <rect width="900" height="900" rx="80" fill="#080B15"/>
  <g filter="url(#glow)">
    <circle cx="450" cy="450" r="170" fill="url(#core)" fill-opacity="0.9"/>
  </g>
  <path d="M185 514C230 324 404 202 574 269C744 336 795 519 689 635C583 751 344 731 234 616" stroke="url(#orbit1)" stroke-width="3" stroke-linecap="round"/>
  <path d="M187 372C316 247 563 194 682 333C801 472 692 662 504 697C316 732 168 586 183 447" stroke="url(#orbit2)" stroke-width="2" stroke-linecap="round" opacity="0.8"/>
  <path d="M288 238C423 120 657 206 711 386C765 566 635 736 460 725C285 714 183 561 218 407" stroke="url(#orbit3)" stroke-width="2" stroke-linecap="round" opacity="0.75"/>
  <circle cx="242" cy="614" r="11" fill="#22D3EE"/>
  <circle cx="689" cy="333" r="9" fill="#A78BFA"/>
  <circle cx="711" cy="514" r="13" fill="#34D399"/>
  <circle cx="288" cy="238" r="8" fill="#F472B6"/>
  <g opacity="0.95">
    <rect x="356" y="352" width="188" height="188" rx="36" fill="#0F172A" stroke="#2DD4BF" stroke-opacity="0.75" stroke-width="2"/>
    <path d="M404 430L442 468L404 506" stroke="#22D3EE" stroke-width="16" stroke-linecap="round" stroke-linejoin="round"/>
    <path d="M468 506H512" stroke="#A78BFA" stroke-width="16" stroke-linecap="round"/>
    <circle cx="381" cy="322" r="6" fill="#22D3EE"/>
    <circle cx="450" cy="308" r="6" fill="#34D399"/>
    <circle cx="519" cy="322" r="6" fill="#A78BFA"/>
    <path d="M381 322V352M450 308V352M519 322V352" stroke="#334155" stroke-width="3"/>
    <circle cx="381" cy="578" r="6" fill="#22D3EE"/>
    <circle cx="450" cy="592" r="6" fill="#34D399"/>
    <circle cx="519" cy="578" r="6" fill="#A78BFA"/>
    <path d="M381 578V540M450 592V540M519 578V540" stroke="#334155" stroke-width="3"/>
  </g>
  <g opacity="0.35">
    <path d="M124 176H292" stroke="#64748B" stroke-width="2" stroke-linecap="round"/>
    <path d="M124 205H245" stroke="#22D3EE" stroke-width="2" stroke-linecap="round"/>
    <path d="M124 234H322" stroke="#64748B" stroke-width="2" stroke-linecap="round"/>
    <path d="M596 686H776" stroke="#64748B" stroke-width="2" stroke-linecap="round"/>
    <path d="M596 715H731" stroke="#A78BFA" stroke-width="2" stroke-linecap="round"/>
    <path d="M596 744H802" stroke="#64748B" stroke-width="2" stroke-linecap="round"/>
  </g>
  <defs>
    <filter id="glow" x="190" y="190" width="520" height="520" filterUnits="userSpaceOnUse" color-interpolation-filters="sRGB">
      <feFlood flood-opacity="0" result="BackgroundImageFix"/>
      <feGaussianBlur in="SourceGraphic" stdDeviation="45"/>
    </filter>
    <radialGradient id="core" cx="0" cy="0" r="1" gradientUnits="userSpaceOnUse" gradientTransform="translate(450 450) rotate(90) scale(170)">
      <stop stop-color="#22D3EE"/>
      <stop offset="0.45" stop-color="#6366F1"/>
      <stop offset="1" stop-color="#0F172A" stop-opacity="0"/>
    </radialGradient>
    <linearGradient id="orbit1" x1="185" y1="450" x2="735" y2="450" gradientUnits="userSpaceOnUse">
      <stop stop-color="#22D3EE" stop-opacity="0"/>
      <stop offset="0.45" stop-color="#22D3EE"/>
      <stop offset="1" stop-color="#A78BFA" stop-opacity="0.2"/>
    </linearGradient>
    <linearGradient id="orbit2" x1="180" y1="450" x2="760" y2="450" gradientUnits="userSpaceOnUse">
      <stop stop-color="#A78BFA" stop-opacity="0.1"/>
      <stop offset="0.5" stop-color="#34D399"/>
      <stop offset="1" stop-color="#22D3EE" stop-opacity="0"/>
    </linearGradient>
    <linearGradient id="orbit3" x1="220" y1="220" x2="720" y2="720" gradientUnits="userSpaceOnUse">
      <stop stop-color="#F472B6"/>
      <stop offset="0.55" stop-color="#22D3EE"/>
      <stop offset="1" stop-color="#34D399" stop-opacity="0"/>
    </linearGradient>
  </defs>
</svg>
